<svg width="354" height="136" viewBox="0 0 354 136" fill="none" xmlns="http://www.w3.org/2000/svg">
<rect x="0.5" y="0.5" width="353" height="135" rx="19.5" fill="#FFEA92" stroke="black"/>
<rect width="354" height="136" rx="20" fill="#FFDB46"/>
<path d="M161.578 35.9375L166.5 49.0156L171.41 35.9375H175.242V53H172.289V47.375L172.582 39.8516L167.543 53H165.422L160.395 39.8633L160.688 47.375V53H157.734V35.9375H161.578ZM177.949 46.543C177.949 45.3008 178.195 44.1836 178.688 43.1914C179.18 42.1914 179.871 41.4258 180.762 40.8945C181.652 40.3555 182.676 40.0859 183.832 40.0859C185.543 40.0859 186.93 40.6367 187.992 41.7383C189.062 42.8398 189.641 44.3008 189.727 46.1211L189.738 46.7891C189.738 48.0391 189.496 49.1562 189.012 50.1406C188.535 51.125 187.848 51.8867 186.949 52.4258C186.059 52.9648 185.027 53.2344 183.855 53.2344C182.066 53.2344 180.633 52.6406 179.555 51.4531C178.484 50.2578 177.949 48.668 177.949 46.6836V46.543ZM180.797 46.7891C180.797 48.0938 181.066 49.1172 181.605 49.8594C182.145 50.5938 182.895 50.9609 183.855 50.9609C184.816 50.9609 185.562 50.5859 186.094 49.8359C186.633 49.0859 186.902 47.9883 186.902 46.543C186.902 45.2617 186.625 44.2461 186.07 43.4961C185.523 42.7461 184.777 42.3711 183.832 42.3711C182.902 42.3711 182.164 42.7422 181.617 43.4844C181.07 44.2188 180.797 45.3203 180.797 46.7891ZM195.715 37.2383V40.3203H197.953V42.4297H195.715V49.5078C195.715 49.9922 195.809 50.3438 195.996 50.5625C196.191 50.7734 196.535 50.8789 197.027 50.8789C197.355 50.8789 197.688 50.8398 198.023 50.7617V52.9648C197.375 53.1445 196.75 53.2344 196.148 53.2344C193.961 53.2344 192.867 52.0273 192.867 49.6133V42.4297H190.781V40.3203H192.867V37.2383H195.715ZM199.254 46.543C199.254 45.3008 199.5 44.1836 199.992 43.1914C200.484 42.1914 201.176 41.4258 202.066 40.8945C202.957 40.3555 203.98 40.0859 205.137 40.0859C206.848 40.0859 208.234 40.6367 209.297 41.7383C210.367 42.8398 210.945 44.3008 211.031 46.1211L211.043 46.7891C211.043 48.0391 210.801 49.1562 210.316 50.1406C209.84 51.125 209.152 51.8867 208.254 52.4258C207.363 52.9648 206.332 53.2344 205.16 53.2344C203.371 53.2344 201.938 52.6406 200.859 51.4531C199.789 50.2578 199.254 48.668 199.254 46.6836V46.543ZM202.102 46.7891C202.102 48.0938 202.371 49.1172 202.91 49.8594C203.449 50.5938 204.199 50.9609 205.16 50.9609C206.121 50.9609 206.867 50.5859 207.398 49.8359C207.938 49.0859 208.207 47.9883 208.207 46.543C208.207 45.2617 207.93 44.2461 207.375 43.4961C206.828 42.7461 206.082 42.3711 205.137 42.3711C204.207 42.3711 203.469 42.7422 202.922 43.4844C202.375 44.2188 202.102 45.3203 202.102 46.7891ZM218.66 50.9609C219.371 50.9609 219.961 50.7539 220.43 50.3398C220.898 49.9258 221.148 49.4141 221.18 48.8047H223.863C223.832 49.5938 223.586 50.332 223.125 51.0195C222.664 51.6992 222.039 52.2383 221.25 52.6367C220.461 53.0352 219.609 53.2344 218.695 53.2344C216.922 53.2344 215.516 52.6602 214.477 51.5117C213.438 50.3633 212.918 48.7773 212.918 46.7539V46.4609C212.918 44.5312 213.434 42.9883 214.465 41.832C215.496 40.668 216.902 40.0859 218.684 40.0859C220.191 40.0859 221.418 40.5273 222.363 41.4102C223.316 42.2852 223.816 43.4375 223.863 44.8672H221.18C221.148 44.1406 220.898 43.543 220.43 43.0742C219.969 42.6055 219.379 42.3711 218.66 42.3711C217.738 42.3711 217.027 42.707 216.527 43.3789C216.027 44.043 215.773 45.0547 215.766 46.4141V46.8711C215.766 48.2461 216.012 49.2734 216.504 49.9531C217.004 50.625 217.723 50.9609 218.66 50.9609ZM230.449 48.9219L233.027 40.3203H236.062L231.023 54.9219C230.25 57.0547 228.938 58.1211 227.086 58.1211C226.672 58.1211 226.215 58.0508 225.715 57.9102V55.707L226.254 55.7422C226.973 55.7422 227.512 55.6094 227.871 55.3438C228.238 55.0859 228.527 54.6484 228.738 54.0312L229.148 52.9414L224.695 40.3203H227.766L230.449 48.9219ZM242.754 50.9609C243.465 50.9609 244.055 50.7539 244.523 50.3398C244.992 49.9258 245.242 49.4141 245.273 48.8047H247.957C247.926 49.5938 247.68 50.332 247.219 51.0195C246.758 51.6992 246.133 52.2383 245.344 52.6367C244.555 53.0352 243.703 53.2344 242.789 53.2344C241.016 53.2344 239.609 52.6602 238.57 51.5117C237.531 50.3633 237.012 48.7773 237.012 46.7539V46.4609C237.012 44.5312 237.527 42.9883 238.559 41.832C239.59 40.668 240.996 40.0859 242.777 40.0859C244.285 40.0859 245.512 40.5273 246.457 41.4102C247.41 42.2852 247.91 43.4375 247.957 44.8672H245.273C245.242 44.1406 244.992 43.543 244.523 43.0742C244.062 42.6055 243.473 42.3711 242.754 42.3711C241.832 42.3711 241.121 42.707 240.621 43.3789C240.121 44.043 239.867 45.0547 239.859 46.4141V46.8711C239.859 48.2461 240.105 49.2734 240.598 49.9531C241.098 50.625 241.816 50.9609 242.754 50.9609ZM253.137 53H250.289V35H253.137V53ZM261.832 53.2344C260.027 53.2344 258.562 52.668 257.438 51.5352C256.32 50.3945 255.762 48.8789 255.762 46.9883V46.6367C255.762 45.3711 256.004 44.2422 256.488 43.25C256.98 42.25 257.668 41.4727 258.551 40.918C259.434 40.3633 260.418 40.0859 261.504 40.0859C263.23 40.0859 264.562 40.6367 265.5 41.7383C266.445 42.8398 266.918 44.3984 266.918 46.4141V47.5625H258.633C258.719 48.6094 259.066 49.4375 259.676 50.0469C260.293 50.6562 261.066 50.9609 261.996 50.9609C263.301 50.9609 264.363 50.4336 265.184 49.3789L266.719 50.8438C266.211 51.6016 265.531 52.1914 264.68 52.6133C263.836 53.0273 262.887 53.2344 261.832 53.2344ZM261.492 42.3711C260.711 42.3711 260.078 42.6445 259.594 43.1914C259.117 43.7383 258.812 44.5 258.68 45.4766H264.105V45.2656C264.043 44.3125 263.789 43.5938 263.344 43.1094C262.898 42.6172 262.281 42.3711 261.492 42.3711ZM276.246 49.5547C276.246 49.0469 276.035 48.6602 275.613 48.3945C275.199 48.1289 274.508 47.8945 273.539 47.6914C272.57 47.4883 271.762 47.2305 271.113 46.918C269.691 46.2305 268.98 45.2344 268.98 43.9297C268.98 42.8359 269.441 41.9219 270.363 41.1875C271.285 40.4531 272.457 40.0859 273.879 40.0859C275.395 40.0859 276.617 40.4609 277.547 41.2109C278.484 41.9609 278.953 42.9336 278.953 44.1289H276.105C276.105 43.582 275.902 43.1289 275.496 42.7695C275.09 42.4023 274.551 42.2188 273.879 42.2188C273.254 42.2188 272.742 42.3633 272.344 42.6523C271.953 42.9414 271.758 43.3281 271.758 43.8125C271.758 44.25 271.941 44.5898 272.309 44.832C272.676 45.0742 273.418 45.3203 274.535 45.5703C275.652 45.8125 276.527 46.1055 277.16 46.4492C277.801 46.7852 278.273 47.1914 278.578 47.668C278.891 48.1445 279.047 48.7227 279.047 49.4023C279.047 50.543 278.574 51.4688 277.629 52.1797C276.684 52.8828 275.445 53.2344 273.914 53.2344C272.875 53.2344 271.949 53.0469 271.137 52.6719C270.324 52.2969 269.691 51.7812 269.238 51.125C268.785 50.4688 268.559 49.7617 268.559 49.0039H271.324C271.363 49.6758 271.617 50.1953 272.086 50.5625C272.555 50.9219 273.176 51.1016 273.949 51.1016C274.699 51.1016 275.27 50.9609 275.66 50.6797C276.051 50.3906 276.246 50.0156 276.246 49.5547Z" fill="#2E2E2E"/>
<path d="M162.104 83L159.864 79.108H158.646V83H157.05V73.27H160.41C161.157 73.27 161.787 73.4007 162.3 73.662C162.823 73.9233 163.21 74.2733 163.462 74.712C163.723 75.1507 163.854 75.6407 163.854 76.182C163.854 76.8167 163.667 77.3953 163.294 77.918C162.93 78.4313 162.365 78.7813 161.6 78.968L164.008 83H162.104ZM158.646 77.834H160.41C161.007 77.834 161.455 77.6847 161.754 77.386C162.062 77.0873 162.216 76.686 162.216 76.182C162.216 75.678 162.067 75.286 161.768 75.006C161.469 74.7167 161.017 74.572 160.41 74.572H158.646V77.834ZM172.966 78.954C172.966 79.2433 172.947 79.5047 172.91 79.738H167.016C167.062 80.354 167.291 80.8487 167.702 81.222C168.112 81.5953 168.616 81.782 169.214 81.782C170.072 81.782 170.679 81.4227 171.034 80.704H172.756C172.522 81.4133 172.098 81.9967 171.482 82.454C170.875 82.902 170.119 83.126 169.214 83.126C168.476 83.126 167.814 82.9627 167.226 82.636C166.647 82.3 166.19 81.8333 165.854 81.236C165.527 80.6293 165.364 79.9293 165.364 79.136C165.364 78.3427 165.522 77.6473 165.84 77.05C166.166 76.4433 166.619 75.9767 167.198 75.65C167.786 75.3233 168.458 75.16 169.214 75.16C169.942 75.16 170.59 75.3187 171.16 75.636C171.729 75.9533 172.172 76.4013 172.49 76.98C172.807 77.5493 172.966 78.2073 172.966 78.954ZM171.3 78.45C171.29 77.862 171.08 77.3907 170.67 77.036C170.259 76.6813 169.75 76.504 169.144 76.504C168.593 76.504 168.122 76.6813 167.73 77.036C167.338 77.3813 167.104 77.8527 167.03 78.45H171.3ZM176.132 76.42C176.403 76.0653 176.772 75.7667 177.238 75.524C177.705 75.2813 178.232 75.16 178.82 75.16C179.492 75.16 180.104 75.328 180.654 75.664C181.214 75.9907 181.653 76.4527 181.97 77.05C182.288 77.6473 182.446 78.3333 182.446 79.108C182.446 79.8827 182.288 80.578 181.97 81.194C181.653 81.8007 181.214 82.2767 180.654 82.622C180.104 82.958 179.492 83.126 178.82 83.126C178.232 83.126 177.71 83.0093 177.252 82.776C176.795 82.5333 176.422 82.2347 176.132 81.88V86.668H174.536V75.286H176.132V76.42ZM180.822 79.108C180.822 78.576 180.71 78.1187 180.486 77.736C180.272 77.344 179.982 77.05 179.618 76.854C179.264 76.6487 178.881 76.546 178.47 76.546C178.069 76.546 177.686 76.6487 177.322 76.854C176.968 77.0593 176.678 77.358 176.454 77.75C176.24 78.142 176.132 78.604 176.132 79.136C176.132 79.668 176.24 80.1347 176.454 80.536C176.678 80.928 176.968 81.2267 177.322 81.432C177.686 81.6373 178.069 81.74 178.47 81.74C178.881 81.74 179.264 81.6373 179.618 81.432C179.982 81.2173 180.272 80.9093 180.486 80.508C180.71 80.1067 180.822 79.64 180.822 79.108ZM183.493 79.108C183.493 78.3333 183.651 77.6473 183.969 77.05C184.295 76.4527 184.734 75.9907 185.285 75.664C185.845 75.328 186.461 75.16 187.133 75.16C187.739 75.16 188.267 75.2813 188.715 75.524C189.172 75.7573 189.536 76.0513 189.807 76.406V75.286H191.417V83H189.807V81.852C189.536 82.216 189.167 82.5193 188.701 82.762C188.234 83.0047 187.702 83.126 187.105 83.126C186.442 83.126 185.835 82.958 185.285 82.622C184.734 82.2767 184.295 81.8007 183.969 81.194C183.651 80.578 183.493 79.8827 183.493 79.108ZM189.807 79.136C189.807 78.604 189.695 78.142 189.471 77.75C189.256 77.358 188.971 77.0593 188.617 76.854C188.262 76.6487 187.879 76.546 187.469 76.546C187.058 76.546 186.675 76.6487 186.321 76.854C185.966 77.05 185.677 77.344 185.453 77.736C185.238 78.1187 185.131 78.576 185.131 79.108C185.131 79.64 185.238 80.1067 185.453 80.508C185.677 80.9093 185.966 81.2173 186.321 81.432C186.685 81.6373 187.067 81.74 187.469 81.74C187.879 81.74 188.262 81.6373 188.617 81.432C188.971 81.2267 189.256 80.928 189.471 80.536C189.695 80.1347 189.807 79.668 189.807 79.136ZM194.325 74.264C194.036 74.264 193.793 74.166 193.597 73.97C193.401 73.774 193.303 73.5313 193.303 73.242C193.303 72.9527 193.401 72.71 193.597 72.514C193.793 72.318 194.036 72.22 194.325 72.22C194.605 72.22 194.843 72.318 195.039 72.514C195.235 72.71 195.333 72.9527 195.333 73.242C195.333 73.5313 195.235 73.774 195.039 73.97C194.843 74.166 194.605 74.264 194.325 74.264ZM195.109 75.286V83H193.513V75.286H195.109ZM198.8 76.406C199.034 76.014 199.342 75.7107 199.724 75.496C200.116 75.272 200.578 75.16 201.11 75.16V76.812H200.704C200.079 76.812 199.603 76.9707 199.276 77.288C198.959 77.6053 198.8 78.156 198.8 78.94V83H197.204V75.286H198.8V76.406ZM213.158 75.286L208.426 86.626H206.774L208.342 82.874L205.304 75.286H207.082L209.252 81.166L211.506 75.286H213.158ZM217.709 83.126C216.981 83.126 216.323 82.9627 215.735 82.636C215.147 82.3 214.685 81.8333 214.349 81.236C214.013 80.6293 213.845 79.9293 213.845 79.136C213.845 78.352 214.017 77.6567 214.363 77.05C214.708 76.4433 215.179 75.9767 215.777 75.65C216.374 75.3233 217.041 75.16 217.779 75.16C218.516 75.16 219.183 75.3233 219.781 75.65C220.378 75.9767 220.849 76.4433 221.195 77.05C221.54 77.6567 221.713 78.352 221.713 79.136C221.713 79.92 221.535 80.6153 221.181 81.222C220.826 81.8287 220.341 82.3 219.725 82.636C219.118 82.9627 218.446 83.126 217.709 83.126ZM217.709 81.74C218.119 81.74 218.502 81.642 218.857 81.446C219.221 81.25 219.515 80.956 219.739 80.564C219.963 80.172 220.075 79.696 220.075 79.136C220.075 78.576 219.967 78.1047 219.753 77.722C219.538 77.33 219.253 77.036 218.899 76.84C218.544 76.644 218.161 76.546 217.751 76.546C217.34 76.546 216.957 76.644 216.603 76.84C216.257 77.036 215.982 77.33 215.777 77.722C215.571 78.1047 215.469 78.576 215.469 79.136C215.469 79.9667 215.679 80.6107 216.099 81.068C216.528 81.516 217.065 81.74 217.709 81.74ZM230.276 75.286V83H228.68V82.09C228.428 82.4073 228.097 82.6593 227.686 82.846C227.285 83.0233 226.856 83.112 226.398 83.112C225.792 83.112 225.246 82.986 224.76 82.734C224.284 82.482 223.906 82.1087 223.626 81.614C223.356 81.1193 223.22 80.522 223.22 79.822V75.286H224.802V79.584C224.802 80.2747 224.975 80.8067 225.32 81.18C225.666 81.544 226.137 81.726 226.734 81.726C227.332 81.726 227.803 81.544 228.148 81.18C228.503 80.8067 228.68 80.2747 228.68 79.584V75.286H230.276ZM233.978 76.406C234.211 76.014 234.519 75.7107 234.902 75.496C235.294 75.272 235.756 75.16 236.288 75.16V76.812H235.882C235.257 76.812 234.781 76.9707 234.454 77.288C234.137 77.6053 233.978 78.156 233.978 78.94V83H232.382V75.286H233.978V76.406ZM250.73 75.16C251.336 75.16 251.878 75.286 252.354 75.538C252.839 75.79 253.217 76.1633 253.488 76.658C253.768 77.1527 253.908 77.75 253.908 78.45V83H252.326V78.688C252.326 77.9973 252.153 77.47 251.808 77.106C251.462 76.7327 250.991 76.546 250.394 76.546C249.796 76.546 249.32 76.7327 248.966 77.106C248.62 77.47 248.448 77.9973 248.448 78.688V83H246.866V78.688C246.866 77.9973 246.693 77.47 246.348 77.106C246.002 76.7327 245.531 76.546 244.934 76.546C244.336 76.546 243.86 76.7327 243.506 77.106C243.16 77.47 242.988 77.9973 242.988 78.688V83H241.392V75.286H242.988V76.168C243.249 75.8507 243.58 75.6033 243.982 75.426C244.383 75.2487 244.812 75.16 245.27 75.16C245.886 75.16 246.436 75.2907 246.922 75.552C247.407 75.8133 247.78 76.1913 248.042 76.686C248.275 76.2193 248.639 75.8507 249.134 75.58C249.628 75.3 250.16 75.16 250.73 75.16ZM259.285 83.126C258.557 83.126 257.899 82.9627 257.311 82.636C256.723 82.3 256.261 81.8333 255.925 81.236C255.589 80.6293 255.421 79.9293 255.421 79.136C255.421 78.352 255.593 77.6567 255.939 77.05C256.284 76.4433 256.755 75.9767 257.353 75.65C257.95 75.3233 258.617 75.16 259.355 75.16C260.092 75.16 260.759 75.3233 261.357 75.65C261.954 75.9767 262.425 76.4433 262.771 77.05C263.116 77.6567 263.289 78.352 263.289 79.136C263.289 79.92 263.111 80.6153 262.757 81.222C262.402 81.8287 261.917 82.3 261.301 82.636C260.694 82.9627 260.022 83.126 259.285 83.126ZM259.285 81.74C259.695 81.74 260.078 81.642 260.433 81.446C260.797 81.25 261.091 80.956 261.315 80.564C261.539 80.172 261.651 79.696 261.651 79.136C261.651 78.576 261.543 78.1047 261.329 77.722C261.114 77.33 260.829 77.036 260.475 76.84C260.12 76.644 259.737 76.546 259.327 76.546C258.916 76.546 258.533 76.644 258.179 76.84C257.833 77.036 257.558 77.33 257.353 77.722C257.147 78.1047 257.045 78.576 257.045 79.136C257.045 79.9667 257.255 80.6107 257.675 81.068C258.104 81.516 258.641 81.74 259.285 81.74ZM266.728 76.588V80.858C266.728 81.1473 266.794 81.3573 266.924 81.488C267.064 81.6093 267.298 81.67 267.624 81.67H268.604V83H267.344C266.626 83 266.075 82.832 265.692 82.496C265.31 82.16 265.118 81.614 265.118 80.858V76.588H264.208V75.286H265.118V73.368H266.728V75.286H268.604V76.588H266.728ZM273.421 83.126C272.693 83.126 272.035 82.9627 271.447 82.636C270.859 82.3 270.397 81.8333 270.061 81.236C269.725 80.6293 269.557 79.9293 269.557 79.136C269.557 78.352 269.73 77.6567 270.075 77.05C270.421 76.4433 270.892 75.9767 271.489 75.65C272.087 75.3233 272.754 75.16 273.491 75.16C274.229 75.16 274.896 75.3233 275.493 75.65C276.091 75.9767 276.562 76.4433 276.907 77.05C277.253 77.6567 277.425 78.352 277.425 79.136C277.425 79.92 277.248 80.6153 276.893 81.222C276.539 81.8287 276.053 82.3 275.437 82.636C274.831 82.9627 274.159 83.126 273.421 83.126ZM273.421 81.74C273.832 81.74 274.215 81.642 274.569 81.446C274.933 81.25 275.227 80.956 275.451 80.564C275.675 80.172 275.787 79.696 275.787 79.136C275.787 78.576 275.68 78.1047 275.465 77.722C275.251 77.33 274.966 77.036 274.611 76.84C274.257 76.644 273.874 76.546 273.463 76.546C273.053 76.546 272.67 76.644 272.315 76.84C271.97 77.036 271.695 77.33 271.489 77.722C271.284 78.1047 271.181 78.576 271.181 79.136C271.181 79.9667 271.391 80.6107 271.811 81.068C272.241 81.516 272.777 81.74 273.421 81.74ZM278.471 79.136C278.471 78.3427 278.63 77.6473 278.947 77.05C279.274 76.4433 279.722 75.9767 280.291 75.65C280.86 75.3233 281.514 75.16 282.251 75.16C283.184 75.16 283.954 75.384 284.561 75.832C285.177 76.2707 285.592 76.9007 285.807 77.722H284.085C283.945 77.3393 283.721 77.0407 283.413 76.826C283.105 76.6113 282.718 76.504 282.251 76.504C281.598 76.504 281.075 76.7373 280.683 77.204C280.3 77.6613 280.109 78.3053 280.109 79.136C280.109 79.9667 280.3 80.6153 280.683 81.082C281.075 81.5487 281.598 81.782 282.251 81.782C283.175 81.782 283.786 81.376 284.085 80.564H285.807C285.583 81.348 285.163 81.9733 284.547 82.44C283.931 82.8973 283.166 83.126 282.251 83.126C281.514 83.126 280.86 82.9627 280.291 82.636C279.722 82.3 279.274 81.8333 278.947 81.236C278.63 80.6293 278.471 79.9293 278.471 79.136ZM294.342 75.286L289.61 86.626H287.958L289.526 82.874L286.488 75.286H288.266L290.436 81.166L292.69 75.286H294.342ZM295.014 79.136C295.014 78.3427 295.173 77.6473 295.49 77.05C295.817 76.4433 296.265 75.9767 296.834 75.65C297.403 75.3233 298.057 75.16 298.794 75.16C299.727 75.16 300.497 75.384 301.104 75.832C301.72 76.2707 302.135 76.9007 302.35 77.722H300.628C300.488 77.3393 300.264 77.0407 299.956 76.826C299.648 76.6113 299.261 76.504 298.794 76.504C298.141 76.504 297.618 76.7373 297.226 77.204C296.843 77.6613 296.652 78.3053 296.652 79.136C296.652 79.9667 296.843 80.6153 297.226 81.082C297.618 81.5487 298.141 81.782 298.794 81.782C299.718 81.782 300.329 81.376 300.628 80.564H302.35C302.126 81.348 301.706 81.9733 301.09 82.44C300.474 82.8973 299.709 83.126 298.794 83.126C298.057 83.126 297.403 82.9627 296.834 82.636C296.265 82.3 295.817 81.8333 295.49 81.236C295.173 80.6293 295.014 79.9293 295.014 79.136ZM305.537 72.64V83H303.941V72.64H305.537ZM314.702 78.954C314.702 79.2433 314.683 79.5047 314.646 79.738H308.752C308.799 80.354 309.027 80.8487 309.438 81.222C309.849 81.5953 310.353 81.782 310.95 81.782C311.809 81.782 312.415 81.4227 312.77 80.704H314.492C314.259 81.4133 313.834 81.9967 313.218 82.454C312.611 82.902 311.855 83.126 310.95 83.126C310.213 83.126 309.55 82.9627 308.962 82.636C308.383 82.3 307.926 81.8333 307.59 81.236C307.263 80.6293 307.1 79.9293 307.1 79.136C307.1 78.3427 307.259 77.6473 307.576 77.05C307.903 76.4433 308.355 75.9767 308.934 75.65C309.522 75.3233 310.194 75.16 310.95 75.16C311.678 75.16 312.327 75.3187 312.896 75.636C313.465 75.9533 313.909 76.4013 314.226 76.98C314.543 77.5493 314.702 78.2073 314.702 78.954ZM313.036 78.45C313.027 77.862 312.817 77.3907 312.406 77.036C311.995 76.6813 311.487 76.504 310.88 76.504C310.329 76.504 309.858 76.6813 309.466 77.036C309.074 77.3813 308.841 77.8527 308.766 78.45H313.036ZM319.073 83.126C318.466 83.126 317.92 83.0187 317.435 82.804C316.959 82.58 316.581 82.2813 316.301 81.908C316.021 81.5253 315.871 81.1007 315.853 80.634H317.505C317.533 80.9607 317.687 81.236 317.967 81.46C318.256 81.6747 318.615 81.782 319.045 81.782C319.493 81.782 319.838 81.698 320.081 81.53C320.333 81.3527 320.459 81.1287 320.459 80.858C320.459 80.5687 320.319 80.354 320.039 80.214C319.768 80.074 319.334 79.92 318.737 79.752C318.158 79.5933 317.687 79.4393 317.323 79.29C316.959 79.1407 316.641 78.912 316.371 78.604C316.109 78.296 315.979 77.89 315.979 77.386C315.979 76.9753 316.1 76.602 316.343 76.266C316.585 75.9207 316.931 75.65 317.379 75.454C317.836 75.258 318.359 75.16 318.947 75.16C319.824 75.16 320.529 75.384 321.061 75.832C321.602 76.2707 321.891 76.8727 321.929 77.638H320.333C320.305 77.2927 320.165 77.0173 319.913 76.812C319.661 76.6067 319.32 76.504 318.891 76.504C318.471 76.504 318.149 76.5833 317.925 76.742C317.701 76.9007 317.589 77.1107 317.589 77.372C317.589 77.5773 317.663 77.75 317.813 77.89C317.962 78.03 318.144 78.142 318.359 78.226C318.573 78.3007 318.891 78.3987 319.311 78.52C319.871 78.6693 320.328 78.8233 320.683 78.982C321.047 79.1313 321.359 79.3553 321.621 79.654C321.882 79.9527 322.017 80.3493 322.027 80.844C322.027 81.2827 321.905 81.6747 321.663 82.02C321.42 82.3653 321.075 82.636 320.627 82.832C320.188 83.028 319.67 83.126 319.073 83.126Z" fill="#626262"/>
</svg>
