<svg width="354" height="136" viewBox="0 0 354 136" fill="none" xmlns="http://www.w3.org/2000/svg">
<rect width="354" height="136" rx="20" fill="#FFAE64"/>
<rect width="354" height="136" rx="20" fill="#FFAE64"/>
<path d="M24.888 49.624C24.888 47.992 25.264 46.528 26.016 45.232C26.784 43.936 27.816 42.928 29.112 42.208C30.424 41.472 31.856 41.104 33.408 41.104C35.184 41.104 36.76 41.544 38.136 42.424C39.528 43.288 40.536 44.52 41.16 46.12H37.872C37.44 45.24 36.84 44.584 36.072 44.152C35.304 43.72 34.416 43.504 33.408 43.504C32.304 43.504 31.32 43.752 30.456 44.248C29.592 44.744 28.912 45.456 28.416 46.384C27.936 47.312 27.696 48.392 27.696 49.624C27.696 50.856 27.936 51.936 28.416 52.864C28.912 53.792 29.592 54.512 30.456 55.024C31.32 55.52 32.304 55.768 33.408 55.768C34.416 55.768 35.304 55.552 36.072 55.12C36.84 54.688 37.44 54.032 37.872 53.152H41.16C40.536 54.752 39.528 55.984 38.136 56.848C36.76 57.712 35.184 58.144 33.408 58.144C31.84 58.144 30.408 57.784 29.112 57.064C27.816 56.328 26.784 55.312 26.016 54.016C25.264 52.72 24.888 51.256 24.888 49.624ZM43.4505 51.328C43.4505 50 43.7225 48.824 44.2665 47.8C44.8265 46.776 45.5785 45.984 46.5225 45.424C47.4825 44.848 48.5385 44.56 49.6905 44.56C50.7305 44.56 51.6345 44.768 52.4025 45.184C53.1865 45.584 53.8105 46.088 54.2745 46.696V44.776H57.0345V58H54.2745V56.032C53.8105 56.656 53.1785 57.176 52.3785 57.592C51.5785 58.008 50.6665 58.216 49.6425 58.216C48.5065 58.216 47.4665 57.928 46.5225 57.352C45.5785 56.76 44.8265 55.944 44.2665 54.904C43.7225 53.848 43.4505 52.656 43.4505 51.328ZM54.2745 51.376C54.2745 50.464 54.0825 49.672 53.6985 49C53.3305 48.328 52.8425 47.816 52.2345 47.464C51.6265 47.112 50.9705 46.936 50.2665 46.936C49.5625 46.936 48.9065 47.112 48.2985 47.464C47.6905 47.8 47.1945 48.304 46.8105 48.976C46.4425 49.632 46.2585 50.416 46.2585 51.328C46.2585 52.24 46.4425 53.04 46.8105 53.728C47.1945 54.416 47.6905 54.944 48.2985 55.312C48.9225 55.664 49.5785 55.84 50.2665 55.84C50.9705 55.84 51.6265 55.664 52.2345 55.312C52.8425 54.96 53.3305 54.448 53.6985 53.776C54.0825 53.088 54.2745 52.288 54.2745 51.376ZM63.3641 46.696C63.7641 46.024 64.2921 45.504 64.9481 45.136C65.6201 44.752 66.4121 44.56 67.3241 44.56V47.392H66.6281C65.5561 47.392 64.7401 47.664 64.1801 48.208C63.6361 48.752 63.3641 49.696 63.3641 51.04V58H60.6281V44.776H63.3641V46.696ZM74.6391 58.216C73.5991 58.216 72.6631 58.032 71.8311 57.664C71.0151 57.28 70.3671 56.768 69.8871 56.128C69.4071 55.472 69.1511 54.744 69.1191 53.944H71.9511C71.9991 54.504 72.2631 54.976 72.7431 55.36C73.2391 55.728 73.8551 55.912 74.5911 55.912C75.3591 55.912 75.9511 55.768 76.3671 55.48C76.7991 55.176 77.0151 54.792 77.0151 54.328C77.0151 53.832 76.7751 53.464 76.2951 53.224C75.8311 52.984 75.0871 52.72 74.0631 52.432C73.0711 52.16 72.2631 51.896 71.6391 51.64C71.0151 51.384 70.4711 50.992 70.0071 50.464C69.5591 49.936 69.3351 49.24 69.3351 48.376C69.3351 47.672 69.5431 47.032 69.9591 46.456C70.3751 45.864 70.9671 45.4 71.7351 45.064C72.5191 44.728 73.4151 44.56 74.4231 44.56C75.9271 44.56 77.1351 44.944 78.0471 45.712C78.9751 46.464 79.4711 47.496 79.5351 48.808H76.7991C76.7511 48.216 76.5111 47.744 76.0791 47.392C75.6471 47.04 75.0631 46.864 74.3271 46.864C73.6071 46.864 73.0551 47 72.6711 47.272C72.2871 47.544 72.0951 47.904 72.0951 48.352C72.0951 48.704 72.2231 49 72.4791 49.24C72.7351 49.48 73.0471 49.672 73.4151 49.816C73.7831 49.944 74.3271 50.112 75.0471 50.32C76.0071 50.576 76.7911 50.84 77.3991 51.112C78.0231 51.368 78.5591 51.752 79.0071 52.264C79.4551 52.776 79.6871 53.456 79.7031 54.304C79.7031 55.056 79.4951 55.728 79.0791 56.32C78.6631 56.912 78.0711 57.376 77.3031 57.712C76.5511 58.048 75.6631 58.216 74.6391 58.216Z" fill="white"/>
<path d="M30.104 83L27.864 79.108H26.646V83H25.05V73.27H28.41C29.1567 73.27 29.7867 73.4007 30.3 73.662C30.8227 73.9233 31.21 74.2733 31.462 74.712C31.7233 75.1507 31.854 75.6407 31.854 76.182C31.854 76.8167 31.6673 77.3953 31.294 77.918C30.93 78.4313 30.3653 78.7813 29.6 78.968L32.008 83H30.104ZM26.646 77.834H28.41C29.0073 77.834 29.4553 77.6847 29.754 77.386C30.062 77.0873 30.216 76.686 30.216 76.182C30.216 75.678 30.0667 75.286 29.768 75.006C29.4693 74.7167 29.0167 74.572 28.41 74.572H26.646V77.834ZM40.9657 78.954C40.9657 79.2433 40.947 79.5047 40.9097 79.738H35.0157C35.0624 80.354 35.291 80.8487 35.7017 81.222C36.1124 81.5953 36.6164 81.782 37.2137 81.782C38.0724 81.782 38.679 81.4227 39.0337 80.704H40.7557C40.5224 81.4133 40.0977 81.9967 39.4817 82.454C38.875 82.902 38.119 83.126 37.2137 83.126C36.4764 83.126 35.8137 82.9627 35.2257 82.636C34.647 82.3 34.1897 81.8333 33.8537 81.236C33.527 80.6293 33.3637 79.9293 33.3637 79.136C33.3637 78.3427 33.5224 77.6473 33.8397 77.05C34.1664 76.4433 34.619 75.9767 35.1977 75.65C35.7857 75.3233 36.4577 75.16 37.2137 75.16C37.9417 75.16 38.5904 75.3187 39.1597 75.636C39.729 75.9533 40.1724 76.4013 40.4897 76.98C40.807 77.5493 40.9657 78.2073 40.9657 78.954ZM39.2997 78.45C39.2904 77.862 39.0804 77.3907 38.6697 77.036C38.259 76.6813 37.7504 76.504 37.1437 76.504C36.593 76.504 36.1217 76.6813 35.7297 77.036C35.3377 77.3813 35.1044 77.8527 35.0297 78.45H39.2997ZM44.1323 76.42C44.403 76.0653 44.7717 75.7667 45.2383 75.524C45.705 75.2813 46.2323 75.16 46.8203 75.16C47.4923 75.16 48.1037 75.328 48.6543 75.664C49.2143 75.9907 49.653 76.4527 49.9703 77.05C50.2877 77.6473 50.4463 78.3333 50.4463 79.108C50.4463 79.8827 50.2877 80.578 49.9703 81.194C49.653 81.8007 49.2143 82.2767 48.6543 82.622C48.1037 82.958 47.4923 83.126 46.8203 83.126C46.2323 83.126 45.7097 83.0093 45.2523 82.776C44.795 82.5333 44.4217 82.2347 44.1323 81.88V86.668H42.5363V75.286H44.1323V76.42ZM48.8223 79.108C48.8223 78.576 48.7103 78.1187 48.4863 77.736C48.2717 77.344 47.9823 77.05 47.6183 76.854C47.2637 76.6487 46.881 76.546 46.4703 76.546C46.069 76.546 45.6863 76.6487 45.3223 76.854C44.9677 77.0593 44.6783 77.358 44.4543 77.75C44.2397 78.142 44.1323 78.604 44.1323 79.136C44.1323 79.668 44.2397 80.1347 44.4543 80.536C44.6783 80.928 44.9677 81.2267 45.3223 81.432C45.6863 81.6373 46.069 81.74 46.4703 81.74C46.881 81.74 47.2637 81.6373 47.6183 81.432C47.9823 81.2173 48.2717 80.9093 48.4863 80.508C48.7103 80.1067 48.8223 79.64 48.8223 79.108ZM51.4926 79.108C51.4926 78.3333 51.6513 77.6473 51.9686 77.05C52.2953 76.4527 52.7339 75.9907 53.2846 75.664C53.8446 75.328 54.4606 75.16 55.1326 75.16C55.7393 75.16 56.2666 75.2813 56.7146 75.524C57.1719 75.7573 57.5359 76.0513 57.8066 76.406V75.286H59.4166V83H57.8066V81.852C57.5359 82.216 57.1673 82.5193 56.7006 82.762C56.2339 83.0047 55.7019 83.126 55.1046 83.126C54.4419 83.126 53.8353 82.958 53.2846 82.622C52.7339 82.2767 52.2953 81.8007 51.9686 81.194C51.6513 80.578 51.4926 79.8827 51.4926 79.108ZM57.8066 79.136C57.8066 78.604 57.6946 78.142 57.4706 77.75C57.2559 77.358 56.9713 77.0593 56.6166 76.854C56.2619 76.6487 55.8793 76.546 55.4686 76.546C55.0579 76.546 54.6753 76.6487 54.3206 76.854C53.9659 77.05 53.6766 77.344 53.4526 77.736C53.2379 78.1187 53.1306 78.576 53.1306 79.108C53.1306 79.64 53.2379 80.1067 53.4526 80.508C53.6766 80.9093 53.9659 81.2173 54.3206 81.432C54.6846 81.6373 55.0673 81.74 55.4686 81.74C55.8793 81.74 56.2619 81.6373 56.6166 81.432C56.9713 81.2267 57.2559 80.928 57.4706 80.536C57.6946 80.1347 57.8066 79.668 57.8066 79.136ZM62.3249 74.264C62.0356 74.264 61.7929 74.166 61.5969 73.97C61.4009 73.774 61.3029 73.5313 61.3029 73.242C61.3029 72.9527 61.4009 72.71 61.5969 72.514C61.7929 72.318 62.0356 72.22 62.3249 72.22C62.6049 72.22 62.8429 72.318 63.0389 72.514C63.2349 72.71 63.3329 72.9527 63.3329 73.242C63.3329 73.5313 63.2349 73.774 63.0389 73.97C62.8429 74.166 62.6049 74.264 62.3249 74.264ZM63.1089 75.286V83H61.5129V75.286H63.1089ZM66.8003 76.406C67.0336 76.014 67.3416 75.7107 67.7243 75.496C68.1163 75.272 68.5783 75.16 69.1103 75.16V76.812H68.7043C68.079 76.812 67.603 76.9707 67.2763 77.288C66.959 77.6053 66.8003 78.156 66.8003 78.94V83H65.2043V75.286H66.8003V76.406ZM81.1581 75.286L76.4261 86.626H74.7741L76.3421 82.874L73.3041 75.286H75.0821L77.2521 81.166L79.5061 75.286H81.1581ZM85.7085 83.126C84.9805 83.126 84.3225 82.9627 83.7345 82.636C83.1465 82.3 82.6845 81.8333 82.3485 81.236C82.0125 80.6293 81.8445 79.9293 81.8445 79.136C81.8445 78.352 82.0172 77.6567 82.3625 77.05C82.7078 76.4433 83.1792 75.9767 83.7765 75.65C84.3738 75.3233 85.0412 75.16 85.7785 75.16C86.5158 75.16 87.1832 75.3233 87.7805 75.65C88.3778 75.9767 88.8492 76.4433 89.1945 77.05C89.5398 77.6567 89.7125 78.352 89.7125 79.136C89.7125 79.92 89.5352 80.6153 89.1805 81.222C88.8258 81.8287 88.3405 82.3 87.7245 82.636C87.1178 82.9627 86.4458 83.126 85.7085 83.126ZM85.7085 81.74C86.1192 81.74 86.5018 81.642 86.8565 81.446C87.2205 81.25 87.5145 80.956 87.7385 80.564C87.9625 80.172 88.0745 79.696 88.0745 79.136C88.0745 78.576 87.9672 78.1047 87.7525 77.722C87.5378 77.33 87.2532 77.036 86.8985 76.84C86.5438 76.644 86.1612 76.546 85.7505 76.546C85.3398 76.546 84.9572 76.644 84.6025 76.84C84.2572 77.036 83.9818 77.33 83.7765 77.722C83.5712 78.1047 83.4685 78.576 83.4685 79.136C83.4685 79.9667 83.6785 80.6107 84.0985 81.068C84.5278 81.516 85.0645 81.74 85.7085 81.74ZM98.2762 75.286V83H96.6802V82.09C96.4282 82.4073 96.0969 82.6593 95.6862 82.846C95.2849 83.0233 94.8556 83.112 94.3982 83.112C93.7916 83.112 93.2456 82.986 92.7602 82.734C92.2842 82.482 91.9062 82.1087 91.6262 81.614C91.3556 81.1193 91.2202 80.522 91.2202 79.822V75.286H92.8022V79.584C92.8022 80.2747 92.9749 80.8067 93.3202 81.18C93.6656 81.544 94.1369 81.726 94.7342 81.726C95.3316 81.726 95.8029 81.544 96.1482 81.18C96.5029 80.8067 96.6802 80.2747 96.6802 79.584V75.286H98.2762ZM101.978 76.406C102.211 76.014 102.519 75.7107 102.902 75.496C103.294 75.272 103.756 75.16 104.288 75.16V76.812H103.882C103.257 76.812 102.781 76.9707 102.454 77.288C102.137 77.6053 101.978 78.156 101.978 78.94V83H100.382V75.286H101.978V76.406ZM108.86 79.136C108.86 78.3427 109.018 77.6473 109.336 77.05C109.662 76.4433 110.11 75.9767 110.68 75.65C111.249 75.3233 111.902 75.16 112.64 75.16C113.573 75.16 114.343 75.384 114.95 75.832C115.566 76.2707 115.981 76.9007 116.196 77.722H114.474C114.334 77.3393 114.11 77.0407 113.802 76.826C113.494 76.6113 113.106 76.504 112.64 76.504C111.986 76.504 111.464 76.7373 111.072 77.204C110.689 77.6613 110.498 78.3053 110.498 79.136C110.498 79.9667 110.689 80.6153 111.072 81.082C111.464 81.5487 111.986 81.782 112.64 81.782C113.564 81.782 114.175 81.376 114.474 80.564H116.196C115.972 81.348 115.552 81.9733 114.936 82.44C114.32 82.8973 113.554 83.126 112.64 83.126C111.902 83.126 111.249 82.9627 110.68 82.636C110.11 82.3 109.662 81.8333 109.336 81.236C109.018 80.6293 108.86 79.9293 108.86 79.136ZM117.254 79.108C117.254 78.3333 117.413 77.6473 117.73 77.05C118.057 76.4527 118.496 75.9907 119.046 75.664C119.606 75.328 120.222 75.16 120.894 75.16C121.501 75.16 122.028 75.2813 122.476 75.524C122.934 75.7573 123.298 76.0513 123.568 76.406V75.286H125.178V83H123.568V81.852C123.298 82.216 122.929 82.5193 122.462 82.762C121.996 83.0047 121.464 83.126 120.866 83.126C120.204 83.126 119.597 82.958 119.046 82.622C118.496 82.2767 118.057 81.8007 117.73 81.194C117.413 80.578 117.254 79.8827 117.254 79.108ZM123.568 79.136C123.568 78.604 123.456 78.142 123.232 77.75C123.018 77.358 122.733 77.0593 122.378 76.854C122.024 76.6487 121.641 76.546 121.23 76.546C120.82 76.546 120.437 76.6487 120.082 76.854C119.728 77.05 119.438 77.344 119.214 77.736C119 78.1187 118.892 78.576 118.892 79.108C118.892 79.64 119 80.1067 119.214 80.508C119.438 80.9093 119.728 81.2173 120.082 81.432C120.446 81.6373 120.829 81.74 121.23 81.74C121.641 81.74 122.024 81.6373 122.378 81.432C122.733 81.2267 123.018 80.928 123.232 80.536C123.456 80.1347 123.568 79.668 123.568 79.136ZM128.871 76.406C129.104 76.014 129.412 75.7107 129.795 75.496C130.187 75.272 130.649 75.16 131.181 75.16V76.812H130.775C130.149 76.812 129.673 76.9707 129.347 77.288C129.029 77.6053 128.871 78.156 128.871 78.94V83H127.275V75.286H128.871V76.406Z" fill="white" fill-opacity="0.72"/>
</svg>
