<svg width="15" height="12" viewBox="0 0 15 12" fill="none" xmlns="http://www.w3.org/2000/svg">
<g clip-path="url(#clip0)">
<path d="M10.0404 7.05958L8.17783 5.80473V3.24859C8.17783 2.99158 7.94656 2.78383 7.66045 2.78383C7.37434 2.78383 7.14307 2.99158 7.14307 3.24859V6.03714C7.14307 6.18353 7.21964 6.32158 7.35002 6.40895L9.41949 7.80323C9.51261 7.86597 9.62128 7.89618 9.7294 7.89618C9.8872 7.89618 10.0424 7.8325 10.1438 7.70981C10.3156 7.50482 10.2691 7.21342 10.0404 7.05958Z" fill="#34495E"/>
<path d="M7.66045 0C3.97729 0 0.981201 2.6914 0.981201 6C0.981201 9.3086 3.97729 12 7.66045 12C11.3436 12 14.3397 9.3086 14.3397 6C14.3397 2.6914 11.3436 0 7.66045 0ZM7.66045 11.0705C4.54847 11.0705 2.01594 8.79551 2.01594 6C2.01594 3.20449 4.54847 0.929508 7.66045 0.929508C10.7729 0.929508 13.305 3.20449 13.305 6C13.305 8.79551 10.7724 11.0705 7.66045 11.0705Z" fill="#34495E"/>
</g>
<defs>
<clipPath id="clip0">
<rect width="13.3585" height="12" fill="white" transform="translate(0.981201)"/>
</clipPath>
</defs>
</svg>
