<svg width="150" height="139" viewBox="0 0 150 139" fill="none" xmlns="http://www.w3.org/2000/svg">
<path d="M112.5 104.25C108.375 104.25 105 100.341 105 95.5625H45C45 100.341 41.625 104.25 37.5 104.25C33.375 104.25 30 100.341 30 95.5625H0V121.625C0 131.181 6.75 139 15 139H135C143.25 139 150 131.181 150 121.625V95.5625H120C120 100.341 116.625 104.25 112.5 104.25ZM135 34.75H112.5V17.375C112.5 7.81875 105.75 0 97.5 0H52.5C44.25 0 37.5 7.81875 37.5 17.375V34.75H15C6.75 34.75 0 42.5687 0 52.125V86.875H30V78.1875C30 73.4094 33.375 69.5 37.5 69.5C41.625 69.5 45 73.4094 45 78.1875V86.875H105V78.1875C105 73.4094 108.375 69.5 112.5 69.5C116.625 69.5 120 73.4094 120 78.1875V86.875H150V52.125C150 42.5687 143.25 34.75 135 34.75ZM97.5 34.75H52.5V17.375H97.5V34.75Z" fill="#FF8C1A"/>
</svg>
