<svg width="150" height="139" viewBox="0 0 150 139" fill="none" xmlns="http://www.w3.org/2000/svg">
<path d="M112 34.75V35.25H112.5H135C142.907 35.25 149.5 42.7734 149.5 52.125V86.375H120.5V78.1875C120.5 73.2047 116.968 69 112.5 69C108.032 69 104.5 73.2047 104.5 78.1875V86.375H45.5V78.1875C45.5 73.2047 41.9676 69 37.5 69C33.0324 69 29.5 73.2047 29.5 78.1875V86.375H0.5V52.125C0.5 42.7734 7.09259 35.25 15 35.25H37.5H38V34.75V17.375C38 8.02339 44.5926 0.5 52.5 0.5H97.5C105.407 0.5 112 8.02339 112 17.375V34.75ZM97.5 35.25H98V34.75V17.375V16.875H97.5H52.5H52V17.375V34.75V35.25H52.5H97.5ZM37.5 104.75C41.8173 104.75 45.2613 100.823 45.4881 96.0625H104.512C104.739 100.823 108.183 104.75 112.5 104.75C116.817 104.75 120.261 100.823 120.488 96.0625H149.5V121.625C149.5 130.977 142.907 138.5 135 138.5H15C7.09259 138.5 0.5 130.977 0.5 121.625V96.0625H29.5119C29.7387 100.823 33.1827 104.75 37.5 104.75Z" fill="white" stroke="white"/>
</svg>
