<svg width="299" height="299" viewBox="0 0 299 299" fill="none" xmlns="http://www.w3.org/2000/svg">
<path d="M142.889 16.5404C116.606 16.5404 90.9133 24.3342 69.0598 38.9362C47.2064 53.5383 30.1737 74.2927 20.1156 98.5749C10.0576 122.857 7.42594 149.577 12.5535 175.355C17.681 201.133 30.3375 224.811 48.9223 243.396C67.5072 261.981 91.1857 274.637 116.964 279.765C142.742 284.892 169.461 282.261 193.743 272.203C218.026 262.145 238.78 245.112 253.382 223.258C267.984 201.405 275.778 175.712 275.778 149.429C275.778 114.185 261.777 80.3842 236.856 55.4627C211.934 30.5412 178.133 16.5404 142.889 16.5404ZM142.889 265.707C119.891 265.707 97.4103 258.888 78.2885 246.111C59.1667 233.334 44.2631 215.174 35.4623 193.927C26.6615 172.68 24.3588 149.3 28.8454 126.745C33.332 104.189 44.4064 83.4702 60.6681 67.2085C76.9299 50.9468 97.6486 39.8724 120.204 35.3858C142.76 30.8992 166.14 33.2019 187.387 42.0027C208.634 50.8034 226.794 65.7071 239.57 84.8288C252.347 103.951 259.167 126.432 259.167 149.429C259.167 180.268 246.916 209.844 225.11 231.65C203.303 253.456 173.728 265.707 142.889 265.707Z" fill="#268A15"/>
<path d="M232.541 100.931C230.983 99.3568 228.875 98.4731 226.679 98.4731C224.482 98.4731 222.375 99.3568 220.817 100.931L128.525 194.339L78.6374 143.62C77.1158 141.95 75.0039 140.962 72.7664 140.875C70.5288 140.788 68.3488 141.608 66.7059 143.155C65.0631 144.702 64.092 146.849 64.0062 149.124C63.9204 151.399 64.7271 153.615 66.2486 155.285L128.525 218.431L232.541 112.935C233.32 112.149 233.938 111.214 234.361 110.184C234.783 109.154 235 108.049 235 106.933C235 105.817 234.783 104.712 234.361 103.682C233.938 102.652 233.32 101.717 232.541 100.931Z" fill="#268A15"/>
</svg>
